<svg width="35" height="37" viewBox="0 0 35 37" fill="none" xmlns="http://www.w3.org/2000/svg">
<path d="M17.2913 17.404C14.0313 19.394 15.0513 22.934 13.6813 27.474C11.6713 34.134 14.5713 37.234 17.6913 36.434C20.8113 35.634 21.3513 31.284 24.3013 29.664C24.3113 29.654 24.3213 29.654 24.3313 29.644C24.3413 29.634 24.3513 29.634 24.3613 29.624C27.2513 27.894 31.2813 29.604 33.5413 27.314C35.8013 25.024 34.5813 20.954 27.8113 19.344C23.1913 18.244 20.6513 15.584 17.2913 17.404Z" fill="#FFF737"/>
<path d="M7.89122 19.5439C11.1712 21.0039 13.0612 23.9139 12.1212 26.0239C11.1812 28.1339 7.75122 28.6639 4.47122 27.1939C1.19122 25.7339 -0.698777 22.8239 0.241223 20.7139C1.19122 18.6039 4.61122 18.0839 7.89122 19.5439Z" fill="#FFF737"/>
<path d="M23.8713 10.3544C23.4913 13.9244 25.0413 17.0144 27.3413 17.2644C29.6413 17.5144 31.8213 14.8144 32.2013 11.2444C32.5813 7.67441 31.0313 4.58441 28.7313 4.33441C26.4313 4.08441 24.2513 6.78441 23.8713 10.3544Z" fill="#FFF737"/>
<path d="M11.3814 9.11424C13.8114 12.0142 14.2714 15.6342 12.4014 17.2042C10.5314 18.7742 7.04144 17.6942 4.61144 14.7942C2.18144 11.8942 1.72143 8.27424 3.59143 6.70424C5.46143 5.13424 8.94144 6.21424 11.3814 9.11424Z" fill="#FFF737"/>
<path d="M13.0913 8.12398C14.3713 11.684 17.2713 13.904 19.5713 13.074C21.8713 12.244 22.6913 8.68398 21.4113 5.12398C20.1313 1.56398 17.2313 -0.656024 14.9313 0.173976C12.6313 1.00398 11.8113 4.56398 13.0913 8.12398Z" fill="#FFF737"/>
</svg>
